<?xml version="1.0" encoding="UTF-8"?>
<svg id="Layer_2" data-name="Layer 2" xmlns="http://www.w3.org/2000/svg" viewBox="0 0 190.56 192.44">
  <defs>
    <style>
      .cls-1 {
        fill: #231f20;
      }
    </style>
  </defs>
  <g id="Layer_1-2" data-name="Layer 1">
    <g>
      <path class="cls-1" d="M171.63,190.75c-4.12,0-7.39,.01-10.66,0-2.51-.01-5.01-.21-7.49-.65-3.71-.65-6.29-2.83-8.13-6.01-1.47-2.54-2.61-5.24-3.71-7.95-2.38-5.88-4.65-11.81-7.04-17.68-3.19-7.86-6.44-15.7-9.69-23.53-2.22-5.34-4.47-10.66-6.71-15.99-2.75-6.54-5.42-13.11-8.08-19.69-2.4-5.95-4.69-11.95-7-17.94-.16-.42-.34-.84-.55-1.23-1.13-2.13-2.07-4.33-2.9-6.59-.41-1.13-.98-2.2-1.49-3.28-2.15-4.55-4.02-9.23-6.38-13.68-2.01-3.78-4.05-7.55-6.67-10.96-1.72-2.23-3.7-4.24-5.72-6.21-2.45-2.39-4.98-4.68-7.71-6.75-3.02-2.29-6.14-4.43-9.49-6.25-1.65-.89-3.27-1.82-4.97-2.6-2.93-1.33-6.08-1.91-9.16-2.72-.65-.17-1.32-.28-1.97-.47-.9-.27-1.51-.84-1.64-1.8-.12-.93,.35-1.6,1.09-2.07,.66-.42,1.34-.8,2.1-1.06,2.67-.93,5.18-2.22,7.54-3.76,2.13-1.39,3.29-3.56,4.31-5.79,.45-.99,.91-1.97,1.52-2.88,1.11-1.67,2.73-2.56,4.65-2.88,1.55-.26,3.1-.35,4.7-.12,1.33,.19,2.7,.05,4.05,.05,1.88,0,3.76,.1,5.63-.02,5.7-.35,11.41-.19,17.11-.11,2.87,.04,5.76,0,8.63,.54,3.7,.69,6.35,2.7,8.18,5.92,1.12,1.97,1.88,4.09,2.78,6.15,1.93,4.44,3.81,8.9,5.72,13.35,2.32,5.42,4.64,10.84,6.95,16.26,2.58,6.04,5.17,12.08,7.75,18.12,2.32,5.42,4.62,10.84,6.94,16.26,2.2,5.14,4.42,10.27,6.62,15.42,2.07,4.83,4.13,9.67,6.19,14.5,2.12,4.97,4.26,9.94,6.38,14.91,2.3,5.38,4.6,10.77,6.91,16.15,2.58,6.04,5.17,12.08,7.75,18.12,2.61,6.11,5.22,12.22,7.84,18.33,1.26,2.93,2.54,5.86,3.78,8.79,.56,1.32,1.02,2.65,.94,4.13-.06,1.06-.53,1.78-1.4,2.27-1.58,.9-3.33,1.1-5.09,1.25-4.42,.36-8.86,.06-12.43,.17Z"/>
      <path class="cls-1" d="M82.19,192.35c-2.29,0-4.58,.03-6.87,0-8.82-.15-17.64-.12-26.46-.24-3.68-.05-7.36,0-11.03-.11-3.76-.12-7.51,0-11.26-.08-1.27-.03-2.55,0-3.82-.18-2.1-.31-3.71-1.33-4.78-3.17-.97-1.67-1.48-3.52-2.12-5.32-2.29-6.43-4.67-12.82-7.16-19.18-2.24-5.73-4.73-11.35-6.94-17.09-.38-.98-.7-1.98-1.07-2.96-.98-2.63-.9-5.2,.36-7.74,2.16-4.33,4.23-8.7,6.18-13.13,2.94-6.65,5.92-13.29,8.9-19.92,5.35-11.94,10.72-23.88,16.07-35.82,3.74-8.35,7.44-16.72,11.23-25.04,1.39-3.06,3.65-5.48,6.28-7.55,.65-.51,1.38-.66,2.19-.72,2.18-.17,4.15,.55,6.09,1.35,5.11,2.11,9.63,5.05,13.04,9.5,.34,.45,.66,.91,.98,1.38,1.35,1.94,1.53,4.04,.77,6.23-1.81,5.21-3.64,10.4-5.46,15.61-1.56,4.46-3.12,8.92-4.67,13.38-2.5,7.15-5,14.3-7.49,21.45-1.62,4.64-3.22,9.28-4.84,13.92-2.45,7.01-4.9,14.01-7.35,21.02-.42,1.2-.87,2.4-1.24,3.62-1.02,3.41-.71,6.59,1.68,9.39,.86,1,1.9,1.81,2.95,2.59,2.72,2.02,5.75,3.54,8.68,5.21,7.3,4.16,14.62,8.27,21.93,12.41,4.93,2.79,9.85,5.59,14.78,8.37,1.04,.59,1.87,1.36,2.51,2.36,1.21,1.88,2.1,3.89,2.43,6.12,.07,.45,.09,.9,.04,1.35-.23,1.93-1.43,3.08-3.37,3.1-3.72,.04-7.44,.01-11.16,.01,0-.03,0-.06,0-.08Z"/>
      <path class="cls-1" d="M64.94,100.7c.03-1.49,.25-2.95,.79-4.32,1.66-4.19,2.95-8.5,4.51-12.72,1.35-3.63,2.85-7.19,5.07-10.39,.82-1.18,1.75-2.26,2.95-3.07,2.14-1.43,4.42-1.57,6.75-.56,2.25,.97,3.85,2.7,5.14,4.74,1.13,1.78,1.91,3.74,2.75,5.66,3.12,7.15,5.82,14.48,8.59,21.77,2.49,6.56,5.05,13.09,7.95,19.48,.32,.71,.66,1.44-.03,2.07-.61,.55-1.33,.32-2,.03-9.39-4.1-19.08-7.37-28.91-10.23-2.01-.59-4.07-1.06-5.97-1.96-1.92-.91-3.64-2.07-5.04-3.7-1.69-1.97-2.48-4.25-2.53-6.8Z"/>
    </g>
  </g>
</svg>