<svg width="10" height="10" viewBox="0 0 240 240" fill="none" xmlns="http://www.w3.org/2000/svg">
<ellipse cx="120" cy="120.5" rx="112" ry="113.5" fill="#1E5446"/>
<path d="M158 75C158 94.0487 141.501 110 120.5 110C99.4994 110 83 94.0487 83 75C83 55.9513 99.4994 40 120.5 40C141.501 40 158 55.9513 158 75Z" stroke="white" stroke-width="10"/>
<path d="M165.912 133.574L165.912 133.574C176.971 144.948 183.659 160.019 184.819 176H120H55.1811C56.3407 160.019 63.0287 144.948 74.0874 133.573C86.2889 121.024 102.807 114 120 114C137.193 114 153.711 121.024 165.912 133.574Z" stroke="white" stroke-width="10"/>
</svg>
