<?xml version="1.0" encoding="utf-8"?>

<!-- Uploaded to: SVG Repo, www.svgrepo.com, Generator: SVG Repo Mixer Tools -->
<svg width="800px" height="800px" viewBox="0 0 32 32" fill="none" xmlns="http://www.w3.org/2000/svg">
<g clip-path="url(#clip0_901_2720)">
<path d="M30 8.98012C30 8.98012 17.95 2.00012 17 1.48012C15.8 0.820117 16.13 0.860117 15 1.48012C13.87 2.10012 1.99998 8.98012 1.99998 8.98012C1.76998 9.12012 1.57998 9.21012 1.41998 9.31012L1.54998 9.53012L15 22.9801C15.83 23.8101 16.17 23.8101 17 22.9801L30.45 9.53012L30.56 9.30012C30.4 9.20012 30.21 9.10012 30 8.98012Z" fill="#a2c0bc"/>
<path d="M31 9.98005V29.98C31 30.53 30.55 30.98 30 30.98H2C1.45 30.98 1 30.53 1 29.98V9.98005C1 9.63005 1.15 9.47005 1.42 9.31005L1.55 9.53005L15 22.98C15.83 23.81 16.17 23.81 17 22.98L30.45 9.53005L30.56 9.30005C30.83 9.46005 31 9.64005 31 9.98005Z" fill="#FFC44D"/>
<path d="M4 11.9804L15 22.9804C15.834 23.8144 16.167 23.8134 17 22.9804L28 11.9804M9.5 22.4804L4 27.9804M28 27.9804L22.5 22.4804M31 29.9804C31 30.5334 30.553 30.9804 30 30.9804H2C1.447 30.9804 1 30.5334 1 29.9804V9.98045C1 9.42745 1.359 9.35545 2 8.98045C2 8.98045 13.874 2.10545 15 1.48045C16.126 0.855445 15.797 0.824445 17 1.48045C17.947 1.99745 30 8.98045 30 8.98045C30.563 9.30845 31 9.42745 31 9.98045V29.9804Z" stroke="#000000" stroke-width="2" stroke-linecap="round" stroke-linejoin="round"/>
</g>
<defs>
<clipPath id="clip0_901_2720">
<rect width="32" height="32" fill="white"/>
</clipPath>
</defs>
</svg>