<svg fill="#000000" width="800px" height="800px" viewBox="0 0 24 24" id="mail" data-name="Flat Line" xmlns="http://www.w3.org/2000/svg" class="icon flat-line">
  <path id="secondary" d="M21,6V8l-9,5L3,8V6A1,1,0,0,1,4,5H20A1,1,0,0,1,21,6Z" style="fill: #93cbc3; stroke-width: 2;"></path>
  <path id="primary" d="M20,19H4a1,1,0,0,1-1-1V6A1,1,0,0,1,4,5H20a1,1,0,0,1,1,1V18A1,1,0,0,1,20,19ZM20,5H4A1,1,0,0,0,3,6V8l9,5,9-5V6A1,1,0,0,0,20,5Z" style="fill: none; stroke: #e6e6e6; stroke-linecap: round; stroke-linejoin: round; stroke-width: 2;"></path>
</svg>
