<?xml version="1.0" encoding="UTF-8"?>
<svg id="Layer_2" data-name="Layer 2" xmlns="http://www.w3.org/2000/svg" viewBox="0 0 272.03 71.16">
  <defs>
    <style>
      .cls-1 {
        fill: #ffffff;
      }
    </style>
  </defs>
  <g id="Layer_1-2" data-name="Layer 1">
    <g>
      <path class="cls-1" d="M63.46,70.53c-1.52,0-2.73,0-3.94,0-.93,0-1.85-.08-2.77-.24-1.37-.24-2.32-1.05-3.01-2.22-.55-.94-.97-1.94-1.37-2.94-.88-2.18-1.72-4.37-2.6-6.54-1.18-2.91-2.38-5.8-3.58-8.7-.82-1.97-1.65-3.94-2.48-5.91-1.02-2.42-2-4.85-2.99-7.28-.89-2.2-1.73-4.42-2.59-6.63-.06-.16-.13-.31-.2-.46-.42-.79-.77-1.6-1.07-2.44-.15-.42-.36-.81-.55-1.21-.8-1.68-1.49-3.41-2.36-5.06-.74-1.4-1.5-2.79-2.47-4.05-.64-.82-1.37-1.57-2.11-2.3-.91-.88-1.84-1.73-2.85-2.49-1.12-.85-2.27-1.64-3.51-2.31-.61-.33-1.21-.67-1.84-.96-1.08-.49-2.25-.71-3.39-1-.24-.06-.49-.1-.73-.18-.33-.1-.56-.31-.61-.67-.05-.34,.13-.59,.4-.77,.24-.16,.5-.3,.78-.39,.99-.34,1.91-.82,2.79-1.39,.79-.51,1.22-1.32,1.59-2.14,.17-.37,.34-.73,.56-1.06,.41-.62,1.01-.95,1.72-1.07,.57-.1,1.15-.13,1.74-.05,.49,.07,1,.02,1.5,.02,.69,0,1.39,.04,2.08,0,2.11-.13,4.22-.07,6.33-.04,1.06,.02,2.13,0,3.19,.2,1.37,.26,2.35,1,3.03,2.19,.41,.73,.69,1.51,1.03,2.28,.71,1.64,1.41,3.29,2.11,4.94,.86,2,1.71,4.01,2.57,6.01,.96,2.23,1.91,4.47,2.87,6.7,.86,2,1.71,4.01,2.57,6.01,.81,1.9,1.63,3.8,2.45,5.7,.77,1.79,1.53,3.57,2.29,5.36,.79,1.84,1.57,3.67,2.36,5.51,.85,1.99,1.7,3.98,2.55,5.97,.96,2.23,1.91,4.47,2.87,6.7,.97,2.26,1.93,4.52,2.9,6.78,.46,1.08,.94,2.17,1.4,3.25,.21,.49,.38,.98,.35,1.53-.02,.39-.19,.66-.52,.84-.58,.33-1.23,.41-1.88,.46-1.64,.13-3.28,.02-4.6,.06Z"/>
      <path class="cls-1" d="M30.39,71.12c-.85,0-1.69,.01-2.54,0-3.26-.06-6.52-.04-9.79-.09-1.36-.02-2.72,0-4.08-.04-1.39-.04-2.78,0-4.17-.03-.47-.01-.94,0-1.41-.07-.78-.11-1.37-.49-1.77-1.17-.36-.62-.55-1.3-.79-1.97-.85-2.38-1.73-4.74-2.65-7.09-.83-2.12-1.75-4.2-2.57-6.32-.14-.36-.26-.73-.39-1.1-.36-.97-.33-1.92,.13-2.86,.8-1.6,1.56-3.22,2.29-4.86,1.09-2.46,2.19-4.91,3.29-7.37,1.98-4.42,3.96-8.83,5.94-13.24,1.38-3.09,2.75-6.18,4.15-9.26,.52-1.13,1.35-2.03,2.32-2.79,.24-.19,.51-.24,.81-.27,.81-.06,1.53,.2,2.25,.5,1.89,.78,3.56,1.87,4.82,3.51,.13,.17,.24,.34,.36,.51,.5,.72,.57,1.49,.29,2.3-.67,1.93-1.35,3.85-2.02,5.77-.58,1.65-1.15,3.3-1.73,4.95-.92,2.64-1.85,5.29-2.77,7.93-.6,1.71-1.19,3.43-1.79,5.15-.9,2.59-1.81,5.18-2.72,7.77-.16,.45-.32,.89-.46,1.34-.38,1.26-.26,2.44,.62,3.47,.32,.37,.7,.67,1.09,.96,1.01,.75,2.12,1.31,3.21,1.93,2.7,1.54,5.41,3.06,8.11,4.59,1.82,1.03,3.64,2.07,5.47,3.09,.39,.22,.69,.5,.93,.87,.45,.7,.78,1.44,.9,2.26,.02,.17,.03,.33,.01,.5-.09,.71-.53,1.14-1.25,1.15-1.38,.01-2.75,0-4.13,0,0-.01,0-.02,0-.03Z"/>
      <path class="cls-1" d="M24.01,37.23c.01-.55,.09-1.09,.29-1.6,.61-1.55,1.09-3.14,1.67-4.71,.5-1.34,1.05-2.66,1.88-3.84,.3-.44,.65-.84,1.09-1.13,.79-.53,1.63-.58,2.5-.21,.83,.36,1.42,1,1.9,1.75,.42,.66,.71,1.38,1.02,2.09,1.15,2.65,2.15,5.35,3.17,8.05,.92,2.43,1.87,4.84,2.94,7.2,.12,.26,.24,.53-.01,.76-.23,.2-.49,.12-.74,.01-3.47-1.52-7.06-2.72-10.69-3.78-.74-.22-1.5-.39-2.21-.72-.71-.33-1.35-.77-1.86-1.37-.63-.73-.92-1.57-.93-2.51Z"/>
    </g>
    <g>
      <path class="cls-1" d="M108.33,51.58h-18.57c-.49,1.17-.99,2.37-1.49,3.57-1.07,2.56-2.67,3.65-5.42,3.67-1.44,0-2.87,.02-4.31,0-2.35-.04-3.11-1.16-2.2-3.34,3.1-7.47,6.23-14.92,9.35-22.38,2.37-5.66,4.79-11.3,7.07-16.99,1.15-2.86,3.04-3.99,5.82-3.79,.51,.04,1.03,.01,1.55,0,2.39-.04,4.02,1.03,4.95,3.26,2.37,5.72,4.76,11.43,7.15,17.15,3.09,7.41,6.14,14.84,9.32,22.21,1.21,2.81,.16,4.11-2.67,3.91-1.37-.1-2.76,.02-4.13-.03-2.2-.07-3.83-1.09-4.72-3.14-.57-1.31-1.1-2.64-1.69-4.09Zm-4.09-10.21c-1.74-4.29-3.38-8.34-5.17-12.76-1.87,4.39-3.52,8.47-5.2,12.76h10.37Z"/>
      <path class="cls-1" d="M213.96,34.06c-.29,.46-.59,.91-.85,1.38-2.92,5.27-5.88,10.52-8.71,15.84-1.05,1.98-2.5,2.64-4.69,2.78-3.13,.19-4.99-1-6.39-3.79-2.52-5.02-5.35-9.89-8.06-14.81-.26-.48-.56-.93-1.18-1.33,0,.54,0,1.09,0,1.63,0,6.32,0,12.63,0,18.95,0,3.04-1.09,4.1-4.18,4.11-.98,0-1.96-.07-2.93,.01-2.37,.21-4.06-1.31-4.02-3.96,.11-7.17,.04-14.35,.04-21.53,0-5.68,0-11.37,0-17.05,0-2.86,1.1-3.95,3.94-3.98,1.09,0,2.18,0,3.27,0,2.59-.01,4.49,1.1,5.77,3.37,3.97,7.05,7.95,14.09,11.93,21.13,.36,.64,.75,1.27,1.28,2.16,.41-.69,.73-1.2,1.03-1.72,3.91-6.95,7.89-13.87,11.69-20.87,1.59-2.92,3.81-4.3,7.1-4.07,.86,.06,1.72,0,2.58,.01,2.59,.04,3.8,1.22,3.81,3.79,.02,5.34,0,10.68,0,16.02,0,7.52-.08,15.04,.04,22.56,.04,2.89-1.76,4.37-4.22,4.14-1.02-.1-2.07,0-3.1-.02-2.66-.02-3.8-1.12-3.81-3.75-.02-5.45,0-10.91,0-16.36,0-1.52,0-3.04,0-4.56-.11-.03-.22-.06-.33-.08Z"/>
      <path class="cls-1" d="M144.15,22.81c-1.01,0-1.62,0-2.23,0-4.76,0-9.53,0-14.29,0-.57,0-1.15,0-1.72-.06-1.7-.19-2.83-1.33-2.92-3.06-.07-1.37-.06-2.76,0-4.13,.07-1.87,1.27-3.07,3.15-3.23,.4-.03,.8-.01,1.21-.01,9.64,0,19.29,0,28.93,0,.46,0,.92-.03,1.38,.02,1.29,.16,2.18,.96,2.23,2.21,.07,1.77,.08,3.56-.07,5.33-.12,1.47-.97,2.66-1.87,3.81-5.5,6.99-10.98,13.99-16.47,20.99-.88,1.12-1.75,2.25-2.83,3.64,.84,.05,1.37,.1,1.91,.1,5.22,0,10.45,0,15.67,0,2.88,0,3.94,1.07,3.96,3.94,0,.98,.03,1.95,0,2.93-.07,2.22-1.34,3.49-3.59,3.51-4.08,.03-8.15,0-12.23,0-5.97,0-11.94,0-17.91,0-.4,0-.81,.02-1.21-.01-1.46-.12-2.38-.93-2.45-2.39-.08-1.6-.02-3.21,.07-4.81,.09-1.55,.87-2.81,1.82-4.01,5.94-7.52,11.86-15.06,17.78-22.6,.48-.62,.96-1.24,1.71-2.2Z"/>
      <path class="cls-1" d="M258.24,51.6h-18.56c-.54,1.28-1.09,2.53-1.6,3.8-.92,2.3-2.65,3.37-5.07,3.41-1.43,.03-2.87,.02-4.31,0-2.67-.02-3.39-1.11-2.34-3.62,3.93-9.42,7.87-18.83,11.81-28.25,1.55-3.7,3.15-7.39,4.63-11.12,.97-2.45,2.68-3.61,5.29-3.52,.69,.03,1.38,0,2.07,0,2.32,0,3.89,1.06,4.79,3.22,2.24,5.4,4.52,10.79,6.78,16.18,3.19,7.62,6.37,15.24,9.55,22.86,.22,.53,.46,1.06,.62,1.6,.39,1.33-.15,2.45-1.49,2.53-2.28,.13-4.6,.17-6.87-.07-1.67-.17-2.9-1.3-3.57-2.91-.57-1.37-1.15-2.74-1.73-4.13Zm-4.08-10.22c-1.76-4.33-3.4-8.38-5.2-12.8-1.84,4.47-3.55,8.53-5.16,12.8h10.36Z"/>
      <path class="cls-1" d="M160.93,35.57c0-6.43,0-12.86,0-19.28,0-2.87,1.09-3.97,3.92-3.99,1.26,0,2.52-.03,3.79,0,2.29,.06,3.46,1.22,3.58,3.52,.02,.34,0,.69,0,1.03,0,12.45,0,24.91,0,37.36,0,.4,.02,.8-.01,1.2-.15,2.16-1.37,3.35-3.53,3.4-1.38,.03-2.75,.03-4.13,0-2.41-.04-3.61-1.22-3.61-3.61-.02-6.54,0-13.09,0-19.63Z"/>
    </g>
  </g>
</svg>