<?xml version="1.0" encoding="UTF-8"?>
<svg id="Layer_2" data-name="Layer 2" xmlns="http://www.w3.org/2000/svg" viewBox="0 0 196.05 46.58">
  <defs>
    <style>
      .cls-1 {
        fill: #ffffff;
      }
    </style>
  </defs>
  <g id="Layer_1-2" data-name="Layer 1">
    <g>
      <path class="cls-1" d="M32.35,39.3H13.79c-.49,1.17-.99,2.37-1.49,3.57-1.07,2.56-2.67,3.65-5.42,3.67-1.44,0-2.87,.02-4.31,0-2.35-.04-3.11-1.16-2.2-3.34,3.1-7.47,6.23-14.92,9.35-22.38,2.37-5.66,4.79-11.3,7.07-16.99C17.93,.95,19.82-.18,22.61,.03c.51,.04,1.03,.01,1.55,0,2.39-.04,4.02,1.03,4.95,3.26,2.37,5.72,4.76,11.43,7.15,17.15,3.09,7.41,6.14,14.84,9.32,22.21,1.21,2.81,.16,4.11-2.67,3.91-1.37-.1-2.76,.02-4.13-.03-2.2-.07-3.83-1.09-4.72-3.14-.57-1.31-1.1-2.64-1.69-4.09Zm-4.09-10.21c-1.74-4.29-3.38-8.34-5.17-12.76-1.87,4.39-3.52,8.47-5.2,12.76h10.37Z"/>
      <path class="cls-1" d="M137.98,21.78c-.29,.46-.59,.91-.85,1.38-2.92,5.27-5.88,10.52-8.71,15.84-1.05,1.98-2.5,2.64-4.69,2.78-3.13,.19-4.99-1-6.39-3.79-2.52-5.02-5.35-9.89-8.06-14.81-.26-.48-.56-.93-1.18-1.33,0,.54,0,1.09,0,1.63,0,6.32,0,12.63,0,18.95,0,3.04-1.09,4.1-4.18,4.11-.98,0-1.96-.07-2.93,.01-2.37,.21-4.06-1.31-4.02-3.96,.11-7.17,.04-14.35,.04-21.53,0-5.68,0-11.37,0-17.05,0-2.86,1.1-3.95,3.94-3.98,1.09,0,2.18,0,3.27,0,2.59-.01,4.49,1.1,5.77,3.37,3.97,7.05,7.95,14.09,11.93,21.13,.36,.64,.75,1.27,1.28,2.16,.41-.69,.73-1.2,1.03-1.72,3.91-6.95,7.89-13.87,11.69-20.87,1.59-2.92,3.81-4.3,7.1-4.07,.86,.06,1.72,0,2.58,.01,2.59,.04,3.8,1.22,3.81,3.79,.02,5.34,0,10.68,0,16.02,0,7.52-.08,15.04,.04,22.56,.04,2.89-1.76,4.37-4.22,4.14-1.02-.1-2.07,0-3.1-.02-2.66-.02-3.8-1.12-3.81-3.75-.02-5.45,0-10.91,0-16.36,0-1.52,0-3.04,0-4.56-.11-.03-.22-.06-.33-.08Z"/>
      <path class="cls-1" d="M68.17,10.53c-1.01,0-1.62,0-2.23,0-4.76,0-9.53,0-14.29,0-.57,0-1.15,0-1.72-.06-1.7-.19-2.83-1.33-2.92-3.06-.07-1.37-.06-2.76,0-4.13,.07-1.87,1.27-3.07,3.15-3.23,.4-.03,.8-.01,1.21-.01,9.64,0,19.29,0,28.93,0,.46,0,.92-.03,1.38,.02,1.29,.16,2.18,.96,2.23,2.21,.07,1.77,.08,3.56-.07,5.33-.12,1.47-.97,2.66-1.87,3.81-5.5,6.99-10.98,13.99-16.47,20.99-.88,1.12-1.75,2.25-2.83,3.64,.84,.05,1.37,.1,1.91,.1,5.22,0,10.45,0,15.67,0,2.88,0,3.94,1.07,3.96,3.94,0,.98,.03,1.95,0,2.93-.07,2.22-1.34,3.49-3.59,3.51-4.08,.03-8.15,0-12.23,0-5.97,0-11.94,0-17.91,0-.4,0-.81,.02-1.21-.01-1.46-.12-2.38-.93-2.45-2.39-.08-1.6-.02-3.21,.07-4.81,.09-1.55,.87-2.81,1.82-4.01,5.94-7.52,11.86-15.06,17.78-22.6,.48-.62,.96-1.24,1.71-2.2Z"/>
      <path class="cls-1" d="M182.26,39.32h-18.56c-.54,1.28-1.09,2.53-1.6,3.8-.92,2.3-2.65,3.37-5.07,3.41-1.43,.03-2.87,.02-4.31,0-2.67-.02-3.39-1.11-2.34-3.62,3.93-9.42,7.87-18.83,11.81-28.25,1.55-3.7,3.15-7.39,4.63-11.12,.97-2.45,2.68-3.61,5.29-3.52,.69,.03,1.38,0,2.07,0,2.32,0,3.89,1.06,4.79,3.22,2.24,5.4,4.52,10.79,6.78,16.18,3.19,7.62,6.37,15.24,9.55,22.86,.22,.53,.46,1.06,.62,1.6,.39,1.33-.15,2.45-1.49,2.53-2.28,.13-4.6,.17-6.87-.07-1.67-.17-2.9-1.3-3.57-2.91-.57-1.37-1.15-2.74-1.73-4.13Zm-4.08-10.22c-1.76-4.33-3.4-8.38-5.2-12.8-1.84,4.47-3.55,8.53-5.16,12.8h10.36Z"/>
      <path class="cls-1" d="M84.96,23.29c0-6.43,0-12.86,0-19.28,0-2.87,1.09-3.97,3.92-3.99,1.26,0,2.52-.03,3.79,0,2.29,.06,3.46,1.22,3.58,3.52,.02,.34,0,.69,0,1.03,0,12.45,0,24.91,0,37.36,0,.4,.02,.8-.01,1.2-.15,2.16-1.37,3.35-3.53,3.4-1.38,.03-2.75,.03-4.13,0-2.41-.04-3.61-1.22-3.61-3.61-.02-6.54,0-13.09,0-19.63Z"/>
    </g>
  </g>
</svg>